<svg width="25" height="25" fill="none" xmlns="http://www.w3.org/2000/svg"><g clip-path="url(#clip0)"><path d="M21.627 18.24l-1.38 1.38 1.066 1.066h-4.656l6.378-6.377v2.579l1.951 1.951V2.73A2.732 2.732 0 0022.257 0H6.098L8.05 1.951h2.676L4.3 8.378V3.722l1.067 1.066 1.38-1.38L3.372.035 0 3.408l1.38 1.38.969-.969v16.09a2.732 2.732 0 002.729 2.729h16.138l-.97.968 1.38 1.38L25 21.613l-3.373-3.373zm-7.73 2.446H11.17L23.035 8.82v2.729l-9.137 9.137zM4.3 16.553L18.902 1.952h2.753L4.3 19.306v-2.753zM23.035 3.332V6.06L8.409 20.686H5.68L23.035 3.332zm-9.549-1.38h2.656L4.3 13.793v-2.656l9.186-9.185z" fill="url(#paint0_linear)"/></g><defs><linearGradient id="paint0_linear" x1="12.5" y1="0" x2="12.5" y2="24.986" gradientUnits="userSpaceOnUse"><stop stop-color="#406394" stop-opacity=".74"/><stop offset=".609" stop-color="#406394"/></linearGradient><clipPath id="clip0"><path fill="#fff" d="M0 0h25v25H0z"/></clipPath></defs></svg>