<svg width="78" height="78" fill="none" xmlns="http://www.w3.org/2000/svg"><g clip-path="url(#clip0)"><path d="M59.02 8.645L39.52.109a1.3 1.3 0 00-1.04 0l-19.5 8.536a1.3 1.3 0 00-.78 1.19v20.41a14.318 14.318 0 005.928 11.581l13.477 9.72a2.379 2.379 0 002.79 0l13.477-9.718a14.318 14.318 0 005.928-11.58V9.835a1.3 1.3 0 00-.78-1.191zM57.2 30.247a11.712 11.712 0 01-4.849 9.472L39 49.348l-13.351-9.63a11.712 11.712 0 01-4.849-9.47V10.685L39 2.72l18.2 7.966v19.561z" fill="url(#paint0_linear)"/><path d="M38.48 5.785l-14.3 6.26a1.3 1.3 0 00-.78 1.192v17.01a9.1 9.1 0 003.77 7.363l11.07 7.985a1.3 1.3 0 001.52 0l11.07-7.985a9.1 9.1 0 003.77-7.363v-17.01a1.3 1.3 0 00-.78-1.191l-14.3-6.261a1.3 1.3 0 00-1.04 0zm13.52 8.3v16.162a6.5 6.5 0 01-2.691 5.255L39 42.938l-10.309-7.436A6.5 6.5 0 0126 30.247V14.085l13-5.69 13 5.69z" fill="url(#paint1_linear)"/><path d="M10.77 43.16l-2.81-6.57a4.145 4.145 0 00-7.583 3.347L5.47 51.145a13.807 13.807 0 002.823 4.074l8.012 8.013A2.585 2.585 0 0015.6 65v10.4a2.6 2.6 0 002.6 2.6h14.3a2.6 2.6 0 002.6-2.6V65a2.6 2.6 0 00-2.6-2.6v-2.42c.04-3.078-.965-6.08-2.85-8.514a9.36 9.36 0 00-4.332-3.16 25.716 25.716 0 01-7.443-4.777 5.98 5.98 0 00-7.104-.369zM32.5 75.4H18.2V65h14.3v10.4zm-4.879-22.31a11.03 11.03 0 012.279 6.89v2.42H19.15l-9.02-9.02a11.245 11.245 0 01-2.294-3.31L2.742 38.861a1.546 1.546 0 112.826-1.248l2.908 6.782a15.34 15.34 0 003.279 4.843l5.938 5.94a1.3 1.3 0 101.838-1.839l-5.938-5.94a12.824 12.824 0 01-1.603-1.95 3.38 3.38 0 014.21.07 27.717 27.717 0 008.295 5.253 6.83 6.83 0 013.126 2.316z" fill="url(#paint2_linear)"/><path d="M28.6 68.9h-1.3a1.3 1.3 0 100 2.6h1.3a1.3 1.3 0 100-2.6z" fill="url(#paint3_linear)"/><path d="M72.53 51.145l5.094-11.208a4.145 4.145 0 10-7.581-3.347l-2.806 6.545a5.996 5.996 0 00-7.112.39 25.716 25.716 0 01-7.443 4.776 9.36 9.36 0 00-4.332 3.16 13.622 13.622 0 00-2.85 8.52V62.4a2.6 2.6 0 00-2.6 2.6v10.4a2.6 2.6 0 002.6 2.6h14.3a2.6 2.6 0 002.6-2.6V65a2.585 2.585 0 00-.705-1.768l8.012-8.013a13.806 13.806 0 002.823-4.074zM59.8 75.4H45.5V65h14.3v10.4zm-.95-13H48.1v-2.42a11.03 11.03 0 012.279-6.89 6.832 6.832 0 013.12-2.317 27.706 27.706 0 008.295-5.252 3.38 3.38 0 014.219-.082 12.74 12.74 0 01-1.611 1.963l-5.938 5.94a1.3 1.3 0 001.838 1.838l5.938-5.94a15.339 15.339 0 003.279-4.842l2.908-6.784a1.543 1.543 0 012.719-.227c.284.442.325.998.107 1.477L70.158 50.07a11.246 11.246 0 01-2.294 3.31L58.85 62.4z" fill="url(#paint4_linear)"/><path d="M50.7 68.9h-1.3a1.3 1.3 0 100 2.6h1.3a1.3 1.3 0 100-2.6z" fill="url(#paint5_linear)"/><path d="M31.98 27.56a1.3 1.3 0 10-1.56 2.08l5.2 3.9a1.3 1.3 0 001.862-.319l10.4-15.6a1.3 1.3 0 10-2.164-1.442L36.08 30.636l-4.1-3.076z" fill="url(#paint6_linear)"/></g><defs><linearGradient id="paint0_linear" x1="39" y1=".001" x2="39" y2="51.998" gradientUnits="userSpaceOnUse"><stop stop-color="#406394" stop-opacity=".74"/><stop offset=".609" stop-color="#406394"/></linearGradient><linearGradient id="paint1_linear" x1="39" y1="5.676" x2="39" y2="45.841" gradientUnits="userSpaceOnUse"><stop stop-color="#406394" stop-opacity=".74"/><stop offset=".609" stop-color="#406394"/></linearGradient><linearGradient id="paint2_linear" x1="17.561" y1="34.119" x2="17.561" y2="78" gradientUnits="userSpaceOnUse"><stop stop-color="#406394" stop-opacity=".74"/><stop offset=".609" stop-color="#406394"/></linearGradient><linearGradient id="paint3_linear" x1="27.95" y1="68.9" x2="27.95" y2="71.5" gradientUnits="userSpaceOnUse"><stop stop-color="#406394" stop-opacity=".74"/><stop offset=".609" stop-color="#406394"/></linearGradient><linearGradient id="paint4_linear" x1="60.452" y1="34.058" x2="60.452" y2="78" gradientUnits="userSpaceOnUse"><stop stop-color="#406394" stop-opacity=".74"/><stop offset=".609" stop-color="#406394"/></linearGradient><linearGradient id="paint5_linear" x1="50.05" y1="68.9" x2="50.05" y2="71.5" gradientUnits="userSpaceOnUse"><stop stop-color="#406394" stop-opacity=".74"/><stop offset=".609" stop-color="#406394"/></linearGradient><linearGradient id="paint6_linear" x1="39" y1="15.6" x2="39" y2="33.8" gradientUnits="userSpaceOnUse"><stop stop-color="#406394" stop-opacity=".74"/><stop offset=".609" stop-color="#406394"/></linearGradient><clipPath id="clip0"><path fill="#fff" d="M0 0h78v78H0z"/></clipPath></defs></svg>