<svg width="78" height="78" fill="none" xmlns="http://www.w3.org/2000/svg"><g clip-path="url(#clip0)"><path d="M64.64 21.334a7.848 7.848 0 01-2.318-5.587c0-5.725-4.666-10.39-10.391-10.39a7.874 7.874 0 01-5.587-2.318c-4.052-4.052-10.636-4.052-14.688 0a7.848 7.848 0 01-5.587 2.318c-5.725 0-10.39 4.665-10.39 10.39a7.81 7.81 0 01-2.318 5.587 10.32 10.32 0 00-3.04 7.352 10.32 10.32 0 003.04 7.352 7.848 7.848 0 012.317 5.587c0 4.712 3.147 8.687 7.444 9.96L17.09 74.118l9.102-5.065L31.533 78l5.572-20.797c.629.107 1.258.169 1.887.169.63 0 1.259-.062 1.888-.169l5.587 20.782 5.341-8.948L60.91 74.1l-6.032-22.53c4.297-1.275 7.444-5.25 7.444-9.962 0-2.102.828-4.098 2.317-5.587 4.052-4.036 4.052-10.636 0-14.688zM30.673 71.646l-3.561-5.955-6.063 3.376L25.624 52c.169.015.322.015.476.015 2.102 0 4.098.83 5.586 2.318a10.307 10.307 0 00.983.86c.184.138.368.276.568.414.107.077.23.138.337.215.17.092.323.2.492.291.138.077.291.154.43.215.06.03.153.077.245.108l-4.067 15.21zm26.322-2.579l-6.063-3.376-3.56 5.955-4.068-15.21c.092-.046.169-.092.261-.123.154-.077.292-.138.445-.23.169-.092.322-.184.476-.277.123-.076.23-.138.353-.214.184-.123.353-.261.537-.4.092-.06.184-.122.261-.2.261-.214.507-.429.752-.674A7.848 7.848 0 0151.977 52c.123.015.276 0 .445 0l4.574 17.067zm5.878-34.794a10.32 10.32 0 00-3.039 7.352c0 3.806-2.701 6.983-6.293 7.735l-.399.062c-.214.03-.399.06-.598.076-.2.016-.415.03-.614.03-1.044 0-2.057.154-3.024.446a10.244 10.244 0 00-4.313 2.594c-.214.215-.43.399-.66.583-.076.061-.153.108-.23.169-.153.123-.322.23-.49.338-.078.046-.17.107-.262.153-.184.108-.368.2-.552.292-.077.03-.139.061-.215.107-.23.108-.476.2-.706.276-.046.016-.108.047-.154.062l-.092.03a8.069 8.069 0 01-4.435 0l-.123-.03c-.046-.016-.077-.03-.123-.046-.246-.077-.491-.184-.737-.277-.061-.03-.138-.06-.2-.092-.199-.092-.383-.2-.567-.306l-.23-.139c-.185-.107-.353-.23-.522-.353-.062-.046-.138-.092-.2-.153-.23-.184-.445-.384-.66-.583a10.338 10.338 0 00-4.313-2.594 10.446 10.446 0 00-3.023-.445c-.215 0-.415-.016-.614-.031-.184-.015-.384-.046-.599-.077l-.399-.061c-3.591-.752-6.293-3.93-6.293-7.736a10.32 10.32 0 00-3.039-7.352 7.848 7.848 0 01-2.317-5.586c0-2.103.829-4.098 2.317-5.587a10.32 10.32 0 003.04-7.352c0-4.359 3.545-7.889 7.888-7.889a10.32 10.32 0 007.352-3.039 7.877 7.877 0 015.587-2.302c2.026 0 4.052.767 5.587 2.302a10.32 10.32 0 007.352 3.039c4.358 0 7.889 3.545 7.889 7.889a10.32 10.32 0 003.039 7.352c3.07 3.054 3.07 8.058-.016 11.143z" fill="url(#paint0_linear)"/><path d="M39.008 9.992c-10.314 0-18.71 8.395-18.71 18.71 0 10.313 8.396 18.693 18.71 18.693s18.71-8.395 18.71-18.71c0-10.313-8.396-18.693-18.71-18.693zm0 34.902c-8.933 0-16.208-7.275-16.208-16.208 0-8.933 7.275-16.208 16.208-16.208 8.932 0 16.207 7.275 16.207 16.208 0 8.933-7.275 16.208-16.207 16.208z" fill="url(#paint1_linear)"/><path d="M39.008 15.931l-2.778 8.565h-9.01l7.29 5.295-2.777 8.564 7.29-5.295 7.29 5.295-2.793-8.564 7.29-5.295h-9.009l-2.793-8.564zm2.547 15.901l-2.547-1.857-2.548 1.857.967-2.993-2.548-1.857h3.146l.967-2.993.967 2.993h3.147l-2.548 1.857.998 2.993z" fill="url(#paint2_linear)"/></g><defs><linearGradient id="paint0_linear" x1="39" y1="0" x2="39" y2="78" gradientUnits="userSpaceOnUse"><stop stop-color="#406394" stop-opacity=".74"/><stop offset=".609" stop-color="#406394"/></linearGradient><linearGradient id="paint1_linear" x1="39.008" y1="9.992" x2="39.008" y2="47.395" gradientUnits="userSpaceOnUse"><stop stop-color="#406394" stop-opacity=".74"/><stop offset=".609" stop-color="#406394"/></linearGradient><linearGradient id="paint2_linear" x1="39.015" y1="15.931" x2="39.015" y2="38.355" gradientUnits="userSpaceOnUse"><stop stop-color="#406394" stop-opacity=".74"/><stop offset=".609" stop-color="#406394"/></linearGradient><clipPath id="clip0"><path fill="#fff" d="M0 0h78v78H0z"/></clipPath></defs></svg>