<svg width="78" height="78" fill="none" xmlns="http://www.w3.org/2000/svg"><path d="M47.531 36.563h-4.875V39h4.875v-2.438z" fill="url(#paint0_linear)"/><path d="M21.938 36.563h-4.875V39h4.875v-2.438z" fill="url(#paint1_linear)"/><path d="M72.503 33.808l-11.175-1.865a1.218 1.218 0 01-.939-.792l-5.033-14.1a3.67 3.67 0 00-3.45-2.426H11.469A3.67 3.67 0 008.02 17.05L2.791 31.7a6.183 6.183 0 00-.353 2.047v18.66a3.667 3.667 0 003.656 3.656H7.41a8.52 8.52 0 0016.867 0h29.445a8.52 8.52 0 0016.868 0h1.316a3.667 3.667 0 003.656-3.657V37.403a3.63 3.63 0 00-3.059-3.595zM21.816 56.063a6.14 6.14 0 01-.89 2.132l-.768-.767-1.73 1.73.767.768a6.14 6.14 0 01-2.133.89v-1.097h-2.437v1.097a6.14 6.14 0 01-2.133-.89l.768-.768-1.73-1.73-.768.767a6.14 6.14 0 01-.89-2.133h1.097v-2.437H9.872a6.14 6.14 0 01.89-2.133l.767.768 1.731-1.73-.768-.768a6.14 6.14 0 012.133-.89v1.097h2.438v-1.097a6.14 6.14 0 012.132.89l-.768.767 1.731 1.731.768-.768a6.14 6.14 0 01.89 2.133h-1.097v2.438h1.097zM37.78 31.686H24.375v-9.75h13.406v9.75zm30.347 24.375a6.14 6.14 0 01-.89 2.133l-.767-.767-1.731 1.73.768.768a6.14 6.14 0 01-2.133.89v-1.097h-2.438v1.097a6.14 6.14 0 01-2.132-.89l.767-.768-1.73-1.73-.768.767a6.14 6.14 0 01-.89-2.133h1.097v-2.437h-1.097a6.14 6.14 0 01.89-2.133l.768.768 1.73-1.73-.767-.768a6.14 6.14 0 012.133-.89v1.097h2.437v-1.097a6.14 6.14 0 012.133.89l-.768.767 1.73 1.731.768-.768a6.14 6.14 0 01.89 2.133H67.03v2.438h1.097zm4.997-9.75h-3.656v2.438h3.656v3.656a1.218 1.218 0 01-1.219 1.219H70.59a8.52 8.52 0 00-16.868 0H40.22v-19.5h14.625a1.219 1.219 0 001.011-.536 1.243 1.243 0 00.122-1.134l-4.875-12.187a1.218 1.218 0 00-1.133-.768H14.65a1.228 1.228 0 00-1.17.865L9.8 32.553a1.24 1.24 0 00.195 1.085 1.219 1.219 0 00.975.487h26.81v19.5H24.278a8.52 8.52 0 00-16.868 0H6.094a1.219 1.219 0 01-1.219-1.219v-7.312h3.656v-2.438H4.875V40.22h3.656v-2.44H4.875v-4.034a3.9 3.9 0 01.207-1.23l5.24-14.65a1.227 1.227 0 011.146-.805h40.439a1.226 1.226 0 011.145.805l5.034 14.1a3.678 3.678 0 002.852 2.377l11.175 1.865c.253.043.484.167.659.353h-3.303a3.656 3.656 0 100 7.313h3.656v2.438zM40.219 31.688v-9.75h8.921l3.9 9.75H40.219zm-18.282-9.75v9.75h-9.323l2.937-9.75h6.386zm51.188 19.5h-3.656a1.218 1.218 0 110-2.438h3.656v2.438z" fill="url(#paint2_linear)"/><path d="M15.844 51.188a3.656 3.656 0 100 7.312 3.656 3.656 0 000-7.313zm0 4.874a1.22 1.22 0 110-2.438 1.22 1.22 0 010 2.438z" fill="url(#paint3_linear)"/><path d="M62.156 51.188a3.656 3.656 0 100 7.31 3.656 3.656 0 000-7.31zm0 4.874a1.219 1.219 0 110-2.437 1.219 1.219 0 010 2.438z" fill="url(#paint4_linear)"/><defs><linearGradient id="paint0_linear" x1="45.094" y1="36.563" x2="45.094" y2="39" gradientUnits="userSpaceOnUse"><stop stop-color="#406394" stop-opacity=".74"/><stop offset=".609" stop-color="#406394"/></linearGradient><linearGradient id="paint1_linear" x1="19.5" y1="36.563" x2="19.5" y2="39" gradientUnits="userSpaceOnUse"><stop stop-color="#406394" stop-opacity=".74"/><stop offset=".609" stop-color="#406394"/></linearGradient><linearGradient id="paint2_linear" x1="39" y1="14.625" x2="39" y2="63.372" gradientUnits="userSpaceOnUse"><stop stop-color="#406394" stop-opacity=".74"/><stop offset=".609" stop-color="#406394"/></linearGradient><linearGradient id="paint3_linear" x1="15.844" y1="51.188" x2="15.844" y2="58.5" gradientUnits="userSpaceOnUse"><stop stop-color="#406394" stop-opacity=".74"/><stop offset=".609" stop-color="#406394"/></linearGradient><linearGradient id="paint4_linear" x1="62.156" y1="51.188" x2="62.156" y2="58.5" gradientUnits="userSpaceOnUse"><stop stop-color="#406394" stop-opacity=".74"/><stop offset=".609" stop-color="#406394"/></linearGradient></defs></svg>