<svg width="25" height="25" fill="none" xmlns="http://www.w3.org/2000/svg"><g clip-path="url(#clip0)"><path d="M24.268 11.768h-1.06l.567-.984a.732.732 0 10-1.268-.733l-.991 1.717h-2.898l.657-1.516a.732.732 0 00-.406-.974l-1.52-.59 2.044-2.045 1.914.512a.732.732 0 10.38-1.415l-1.098-.294.75-.75a.732.732 0 00-1.036-1.035l-.75.75-.294-1.098a.732.732 0 10-1.415.38l.513 1.914-2.049 2.05-.606-1.537a.732.732 0 00-.977-.402l-1.493.658V3.484l1.717-.99a.732.732 0 00-.733-1.27l-.984.569V.733a.732.732 0 10-1.464 0v1.06l-.984-.568a.732.732 0 10-.733 1.268l1.717.991v2.898l-1.516-.657a.732.732 0 00-.974.406l-.59 1.52-2.045-2.044.512-1.914a.732.732 0 10-1.414-.38l-.294 1.098-.75-.75a.732.732 0 10-1.036 1.036l.75.75-1.098.294a.732.732 0 10.38 1.414l1.914-.512 2.05 2.049-1.537.606a.733.733 0 00-.401.977l.657 1.493H3.484l-.99-1.717a.732.732 0 10-1.27.733l.569.984H.733a.732.732 0 100 1.464h1.06l-.568.984a.732.732 0 001.268.733l.99-1.717h2.9l-.658 1.516a.732.732 0 00.406.974l1.52.59-2.044 2.045-1.914-.512a.732.732 0 10-.38 1.414l1.098.294-.75.75a.732.732 0 001.036 1.036l.75-.75.293 1.098a.733.733 0 001.415-.38l-.513-1.914 2.05-2.05.606 1.537a.733.733 0 00.977.402l1.493-.658v2.892l-1.717.99a.732.732 0 10.733 1.27l.984-.569v1.06a.732.732 0 101.464 0v-1.06l.984.569a.732.732 0 10.732-1.269l-1.716-.99v-2.9l1.516.658a.732.732 0 00.974-.406l.59-1.52 2.045 2.044-.512 1.914a.732.732 0 101.414.38l.294-1.098.75.75a.73.73 0 001.036 0 .732.732 0 000-1.036l-.75-.75 1.098-.294a.732.732 0 00-.38-1.415l-1.914.513-2.05-2.049 1.537-.606a.732.732 0 00.402-.977l-.658-1.493h2.892l.99 1.717a.732.732 0 101.27-.733l-.569-.984h1.06a.732.732 0 100-1.464zM8.785 9.82l1.947 1.947H7.976l-.61-1.387 1.42-.56zm-.002 5.36l-1.412-.549.608-1.4h2.753L8.783 15.18zm2.985 1.843l-1.387.61-.56-1.42 1.947-1.946v2.756zm0-6.292L9.819 8.783l.549-1.412 1.4.608v2.753zm4.449-.913l1.412.549-.608 1.4h-2.753l1.949-1.949zm-2.985-1.843l1.387-.61.56 1.42-1.947 1.946V7.976zm1.4 9.652l-1.4-.607v-2.753l1.949 1.949-.549 1.412zm1.583-2.449l-1.947-1.947h2.756l.61 1.387-1.42.56z" fill="url(#paint0_linear)"/></g><defs><linearGradient id="paint0_linear" x1="12.5" y1="0" x2="12.5" y2="25" gradientUnits="userSpaceOnUse"><stop stop-color="#04AACE" stop-opacity=".58"/><stop offset=".594" stop-color="#03B6CE"/></linearGradient><clipPath id="clip0"><path fill="#fff" d="M0 0h25v25H0z"/></clipPath></defs></svg>