<svg width="110" height="100" fill="none" xmlns="http://www.w3.org/2000/svg"><circle cx="60" cy="50" r="50" fill="url(#paint0_linear)"/><path d="M64.167 27.5h-8.334a.834.834 0 000 1.667h8.334a.834.834 0 000-1.667zm5.833 0h-.833a.834.834 0 000 1.667H70a.834.834 0 000-1.667zm-8.965 40h-2.07a2.302 2.302 0 00-2.298 2.3v.402a2.301 2.301 0 002.298 2.298h2.07a2.3 2.3 0 002.298-2.298v-.403a2.302 2.302 0 00-2.298-2.299zm.632 2.702a.632.632 0 01-.632.631h-2.07a.633.633 0 01-.632-.631v-.403c0-.349.284-.632.633-.632h2.068c.35 0 .633.283.633.632v.403z" fill="#fff"/><path d="M71.155 25h-22.31a3.016 3.016 0 00-3.012 3.012v43.975A3.016 3.016 0 0048.846 75h22.308a3.016 3.016 0 003.013-3.012V28.013A3.016 3.016 0 0071.155 25zM72.5 71.987c0 .742-.603 1.346-1.345 1.346h-22.31a1.347 1.347 0 01-1.345-1.345V28.013c0-.742.603-1.346 1.346-1.346h22.308c.743 0 1.346.604 1.346 1.345v43.975z" fill="#fff"/><path d="M73.333 30H46.667a.834.834 0 00-.834.833v35c0 .46.374.834.834.834h26.666c.46 0 .834-.374.834-.834v-35a.834.834 0 00-.834-.833zM72.5 65h-25V31.667h25V65z" fill="#fff"/><circle cx="19" cy="19" r="18" fill="#fff" stroke="#406394" stroke-width="2"/><path d="M22.063 30H16.78V13.187l-5.187 1.516v-4l9.984-3.453h.485V30z" fill="#406394"/><defs><linearGradient id="paint0_linear" x1="60" y1="0" x2="60" y2="100" gradientUnits="userSpaceOnUse"><stop stop-color="#406394" stop-opacity=".74"/><stop offset=".609" stop-color="#406394"/></linearGradient></defs></svg>