<svg width="112" height="100" fill="none" xmlns="http://www.w3.org/2000/svg"><circle cx="62" cy="50" r="50" fill="url(#paint0_linear)"/><circle cx="19" cy="19" r="18" fill="#fff" stroke="#406394" stroke-width="2"/><path d="M26.266 30H10.39v-3.438l7.312-7.687c1.802-2.052 2.703-3.682 2.703-4.89 0-.98-.213-1.725-.64-2.235-.427-.51-1.047-.766-1.86-.766-.802 0-1.453.344-1.953 1.032-.5.677-.75 1.526-.75 2.546h-5.28a7.43 7.43 0 011.047-3.859 7.324 7.324 0 012.906-2.781c1.24-.667 2.625-1 4.156-1 2.459 0 4.35.568 5.672 1.703 1.334 1.135 2 2.766 2 4.89a7.16 7.16 0 01-.5 2.626c-.333.843-.854 1.734-1.562 2.672-.698.927-1.828 2.171-3.391 3.734l-2.938 3.39h8.954V30z" fill="#406394"/><g clip-path="url(#clip0)" fill="#fff"><path d="M86.476 55.89a.84.84 0 00-.917.2L82 59.831v-22.22h.004l3.396-3.667a.833.833 0 00-.046-1.178l-1.223-1.138 1.698-1.833a.833.833 0 00-.047-1.178l-3.666-3.396a.833.833 0 00-1.178.046l-5.925 6.398H46.167A4.172 4.172 0 0042 27.498h-.833A4.172 4.172 0 0037 31.665v35.833c0 .46.373.833.834.833h12.614l-1.75 2.102a.833.833 0 00.108 1.173l3.842 3.2a.834.834 0 001.174-.108l4.266-5.124c.294-.355.484-.786.546-1.243h15.27l-5.008 5.26a.833.833 0 00.604 1.407h16.666c.46 0 .834-.373.834-.833v-17.5a.834.834 0 00-.524-.774zM83.61 33.416L82 35.158v-1.225l1-1.085.611.567zm-3.278-.149v.012l-7.047 7.617-2.448-2.264 8.49-9.175 2.448 2.264-1.433 1.546h-.01zm-8.648 8.417l-1.917.56.41-1.956 1.507 1.396zm9.908-14.674l2.446 2.263-1.132 1.226-2.447-2.265 1.133-1.224zm-40.426 2.156H42a2.5 2.5 0 012.5 2.5v31.688a4.124 4.124 0 00-2.5-.855h-.833a4.123 4.123 0 00-2.5.855V31.665a2.5 2.5 0 012.5-2.5zm0 35H42a2.5 2.5 0 012.5 2.5h-5.833a2.5 2.5 0 012.5-2.5zm15.64 4.343l-.533.64-2.561-2.132.532-.641a.833.833 0 011.174-.107l1.28 1.064a.833.833 0 01.11 1.173h-.002v.003zm-3.732 4.483l-2.562-2.132 2.133-2.563 2.562 2.133-2.133 2.562zm5.21-6.326a2.476 2.476 0 00-.52-.612l-1.28-1.066a2.5 2.5 0 00-3.52.322l-1.132 1.356h-5.666V33.332h27.305l-4.423 4.779a.81.81 0 00-.174.314c-.008.025-.02.05-.027.077l-.995 4.756a.833.833 0 001.05.97l4.666-1.36c.022-.007.04-.02.06-.026a.673.673 0 00.066-.03.824.824 0 00.25-.176l6.388-6.904v25.85l-4.841 5.083H58.284zm27.048 6.666H71.444l13.89-14.583v14.583z"/><path d="M76.23 71.15a.833.833 0 00.77.515h5.833c.46 0 .834-.373.834-.833v-5.834a.833.833 0 00-1.423-.589l-5.833 5.833a.833.833 0 00-.181.909zM82 67.01v2.988h-2.988L82 67.01zm-8.334-10.345h-5.833v-9.167a.842.842 0 00-.245-.59l-5-5a.833.833 0 00-1.178 0l-5 5a.844.844 0 00-.243.59v9.167h-5.834a.833.833 0 100 1.667h23.334a.833.833 0 100-1.667zM62 43.676l2.988 2.989h-5.976L62 43.676zm-4.167 4.655h8.334v8.334h-8.334v-8.334zm3.333-10h1.668v1.667h-1.668v-1.666zm0 21.667h1.668v1.667h-1.668v-1.667z"/></g><defs><linearGradient id="paint0_linear" x1="62" y1="0" x2="62" y2="100" gradientUnits="userSpaceOnUse"><stop stop-color="#406394" stop-opacity=".74"/><stop offset=".609" stop-color="#406394"/></linearGradient><clipPath id="clip0"><path fill="#fff" transform="translate(37 25)" d="M0 0h50v50H0z"/></clipPath></defs></svg>