<svg width="112" height="101" fill="none" xmlns="http://www.w3.org/2000/svg"><circle cx="62" cy="51" r="50" fill="url(#paint0_linear)"/><circle cx="19" cy="19" r="18" fill="#fff" stroke="#406394" stroke-width="2"/><path d="M24.297 21.11h2.312v4.062h-2.312V30H19.03v-4.828h-8.797l-.312-3.219 9.11-14.656V7.25h5.265v13.86zm-9.36 0h4.094v-7l-.328.53-3.765 6.47z" fill="#406394"/><g clip-path="url(#clip0)" fill="#fff"><path d="M61.93 56.612a.732.732 0 00.732-.732v-.664c1.786-.286 2.873-1.564 3.05-2.825.2-1.436-.725-2.672-2.358-3.147-1.072-.312-2.262-.691-2.955-1.14-.381-.245-.359-.652-.332-.816.068-.407.399-.905 1.123-1.085.261-.065.506-.098.733-.11h.007c.025 0 .05 0 .075-.003 1.065-.029 1.723.432 1.766.463a.732.732 0 00.881-1.17c-.043-.033-.784-.582-1.99-.725v-.537a.732.732 0 10-1.465 0v.584a5.806 5.806 0 00-.36.076c-1.164.29-2.033 1.178-2.215 2.266-.153.921.223 1.798.982 2.288.686.444 1.654.825 3.34 1.316.935.272 1.415.832 1.316 1.537-.112.8-.95 1.615-2.335 1.623-1.15.007-1.605-.036-2.583-.563a.732.732 0 10-.695 1.29c1.003.54 1.658.692 2.55.728v.614c0 .404.328.732.733.732z"/><path d="M86.392 55.678a.732.732 0 00-.702-.728l-5.685-.236-4.359-.56a17.949 17.949 0 00-5.771.201 9.05 9.05 0 00.43-.886.732.732 0 10-1.35-.565 7.506 7.506 0 01-1.261 2.028c-.183.061-.364.124-.544.191l-.58.215a3.08 3.08 0 00-1.76 1.653 7.487 7.487 0 01-2.81.543c-4.154 0-7.534-3.38-7.534-7.534 0-1.821.654-3.565 1.843-4.933.181-.06.362-.123.542-.19l.579-.215a3.078 3.078 0 001.759-1.651A7.474 7.474 0 0162 42.466c4.155 0 7.534 3.38 7.534 7.534 0 .128-.002.251-.008.365a.732.732 0 001.463.075c.007-.139.01-.286.01-.44 0-4.962-4.037-8.999-8.999-8.999-.883 0-1.746.126-2.578.375a3.095 3.095 0 00-1.15-2.035 3.093 3.093 0 00-1.624-.652l-2.882-.274 1.103-.84 6.8-.011h.046c1.3 0 2.445-.82 2.892-2.001h.073a3.093 3.093 0 003.05-2.352 3.092 3.092 0 00-.287-5.781l-6.99-2.232a4.165 4.165 0 00-2.89.131l-6.754 2.86a.732.732 0 10.571 1.349l6.754-2.86a2.7 2.7 0 011.874-.085l6.99 2.232a1.62 1.62 0 011.114 1.776 1.628 1.628 0 01-1.64 1.4l-6.303-.111a.737.737 0 00-.457.15l-8.322 6.345a.732.732 0 00.375 1.312l4.744.45a1.629 1.629 0 011.386 1.097 1.618 1.618 0 01-.975 2.045l-.579.214a16.49 16.49 0 01-7.8.89l-3.754-.482-.028-5.258-.032-6.298 3.96-1.677a.732.732 0 10-.57-1.349l-4.259 1.803-5.553-.231a.73.73 0 00-.763.736l.066 12.685a.732.732 0 00.702.728l5.686.236 4.358.56a18.014 18.014 0 005.77-.2A8.98 8.98 0 0053 50c.001 4.962 4.038 9 9 9a8.99 8.99 0 002.577-.374 3.094 3.094 0 002.775 2.687l2.881.273-1.102.84-6.8.011a3.098 3.098 0 00-2.939 2.002h-.122a3.094 3.094 0 00-3 2.35 3.091 3.091 0 00.287 5.782l6.99 2.233a4.165 4.165 0 002.89-.132l13.705-5.803 5.552.231h.03a.732.732 0 00.733-.736l-.065-12.685zM61.686 36.1h-.014l-4.878.008.699-.533 5.422-.008c-.307.335-.75.541-1.229.533zm-1.288-2.74l5.62.1a1.637 1.637 0 01-1.32.639h-.014l-5.266.008.98-.747zM39.069 43.615l-.058-11.219 4.251.177.037 6.934.022 4.285-4.252-.177zm23.216 20.286h.043l4.878-.008-.699.533-5.423.008a1.63 1.63 0 011.201-.533zm-3.014 2l.03.001h.015l5.266-.008-.98.747-5.62-.1c.299-.39.769-.64 1.289-.64zm6.595 7.42a2.7 2.7 0 01-1.873.086l-6.99-2.232a1.624 1.624 0 01-1.116-1.776 1.629 1.629 0 011.64-1.401l6.304.113a.745.745 0 00.457-.15l8.322-6.347a.732.732 0 00-.375-1.311l-4.744-.45a1.627 1.627 0 01-1.386-1.098 1.618 1.618 0 01.975-2.044l.579-.214a16.488 16.488 0 017.8-.89l3.755.482.06 11.556-13.408 5.677zm14.871-5.894l-.058-11.219 4.252.177.058 11.218-4.252-.176z"/></g><defs><linearGradient id="paint0_linear" x1="62" y1="1" x2="62" y2="101" gradientUnits="userSpaceOnUse"><stop stop-color="#406394" stop-opacity=".74"/><stop offset=".609" stop-color="#406394"/></linearGradient><clipPath id="clip0"><path fill="#fff" transform="translate(37 25)" d="M0 0h50v50H0z"/></clipPath></defs></svg>