<svg width="115" height="101" fill="none" xmlns="http://www.w3.org/2000/svg"><circle cx="65" cy="51" r="50" fill="url(#paint0_linear)"/><circle cx="19" cy="19" r="18" fill="#fff" stroke="#406394" stroke-width="2"/><path d="M15.203 16.422h2.485c1.968 0 2.953-.964 2.953-2.89 0-.75-.235-1.36-.703-1.829-.47-.479-1.13-.719-1.985-.719-.698 0-1.307.204-1.828.61-.51.406-.766.911-.766 1.515h-5.265c0-1.197.333-2.265 1-3.203.666-.937 1.588-1.666 2.765-2.187 1.188-.532 2.49-.797 3.907-.797 2.53 0 4.52.578 5.968 1.734 1.448 1.156 2.172 2.745 2.172 4.766 0 .979-.302 1.906-.906 2.781-.594.865-1.463 1.568-2.61 2.11 1.209.437 2.157 1.104 2.844 2 .688.885 1.032 1.984 1.032 3.296 0 2.032-.782 3.657-2.344 4.875-1.563 1.22-3.615 1.828-6.156 1.828-1.49 0-2.875-.28-4.157-.843-1.27-.573-2.234-1.36-2.89-2.36-.656-1.01-.985-2.156-.985-3.437h5.297c0 .698.281 1.302.844 1.812s1.255.766 2.078.766c.927 0 1.667-.255 2.219-.766.552-.52.828-1.182.828-1.984 0-1.146-.287-1.958-.86-2.438-.572-.479-1.364-.718-2.374-.718h-2.563v-3.922z" fill="#406394"/><path d="M87.5 26h-45c-.663 0-1.298.273-1.767.758A2.636 2.636 0 0040 28.586v12.07c0 .686.264 1.343.733 1.828a2.461 2.461 0 001.767.758h45c.663 0 1.298-.273 1.767-.758A2.635 2.635 0 0090 40.656v-12.07c0-.685-.264-1.343-.733-1.828A2.461 2.461 0 0087.5 26zm-4.167 12.07H46.667v-1.725h36.666v1.725zm-36.666 3.448v-1.724h36.666v1.724H46.667zm41.666-.862a.878.878 0 01-.244.61.82.82 0 01-.589.252H85v-5.173a1.75 1.75 0 00-.489-1.218 1.641 1.641 0 00-1.178-.506H46.667a1.64 1.64 0 00-1.178.506A1.757 1.757 0 0045 36.345v5.173h-2.5a.82.82 0 01-.589-.253.878.878 0 01-.244-.609v-12.07c0-.228.088-.447.244-.609a.82.82 0 01.589-.253h45a.82.82 0 01.589.253c.156.162.244.38.244.61v12.07zM58.42 68.057c.121.19.311.324.528.37a.81.81 0 00.626-.126l1.125-.769.865.518v2.112l-.865.517-1.125-.768a.81.81 0 00-.625-.124.833.833 0 00-.527.37.887.887 0 00-.122.646c.044.224.172.42.356.547l1.207.824.087 1.494c.012.22.106.425.26.576a.818.818 0 00.621.233.823.823 0 00.574-.288.88.88 0 00.208-.624l-.08-1.392.865-.518 1.769 1.056v1.034l-1.206.624a.855.855 0 00-.413.499.89.89 0 00.046.655c.098.203.27.358.479.43a.808.808 0 00.633-.042L65 75.243l1.294.669a.81.81 0 00.633.043.843.843 0 00.48-.432.89.89 0 00.046-.655.855.855 0 00-.414-.498l-1.206-.624v-1.034l1.77-1.056.865.517-.081 1.393a.88.88 0 00.208.623.823.823 0 00.624.29.818.818 0 00.571-.234.875.875 0 00.26-.576l.087-1.494 1.207-.825a.877.877 0 00.361-.884.88.88 0 00-.352-.551.82.82 0 00-.626-.132.82.82 0 00-.301.128l-1.125.769-.865-.517V68.05l.865-.517 1.125.768a.82.82 0 00.627.127.847.847 0 00.53-.37.878.878 0 00.12-.649.877.877 0 00-.359-.547l-1.207-.824-.087-1.494a.886.886 0 00-.275-.6.827.827 0 00-.607-.22.812.812 0 00-.577.293.868.868 0 00-.204.63l.08 1.392-.865.518-1.769-1.056v-1.034l1.206-.624a.838.838 0 00.423-.498.89.89 0 00-.245-.929.824.824 0 00-.608-.207.812.812 0 00-.315.092L65 62.969l-1.294-.669a.81.81 0 00-.923.116.86.86 0 00-.287.593.889.889 0 00.205.628c.073.085.16.155.26.205l1.206.624V65.5l-1.77 1.056-.864-.517.08-1.393a.889.889 0 00-.204-.63.837.837 0 00-.577-.293.808.808 0 00-.607.22.86.86 0 00-.275.6l-.087 1.494-1.207.825a.85.85 0 00-.358.547.893.893 0 00.121.648zm4.811-.008L65 66.993l1.769 1.056v2.113L65 71.218l-1.769-1.056v-2.113zM48.31 61.64l-.496.295-.791-.54a.81.81 0 00-.626-.124.833.833 0 00-.527.369.886.886 0 00-.121.646c.044.224.171.42.355.547l.874.597.063 1.082a.866.866 0 00.26.575.814.814 0 00.57.235l.051-.001a.823.823 0 00.574-.289.88.88 0 00.208-.624l-.056-.98.495-.296 1.21.723v.592l-.848.439a.855.855 0 00-.413.499.889.889 0 00.046.655c.098.203.27.358.479.43a.808.808 0 00.633-.042l.937-.485.937.485a.807.807 0 00.919-.12.86.86 0 00.285-.59.89.89 0 00-.202-.626.839.839 0 00-.257-.206l-.848-.439v-.591l1.211-.723.495.295-.057.98a.881.881 0 00.209.625.824.824 0 00.624.29.819.819 0 00.57-.235.875.875 0 00.26-.576l.063-1.081.874-.597a.88.88 0 00.361-.884.88.88 0 00-.351-.552.82.82 0 00-.627-.131.816.816 0 00-.3.128l-.793.54-.495-.295v-1.447l.495-.296.792.54a.816.816 0 00.928-.003.85.85 0 00.352-.551.893.893 0 00-.13-.648.846.846 0 00-.232-.236l-.874-.597-.062-1.082a.885.885 0 00-.278-.597.826.826 0 00-.604-.217.812.812 0 00-.575.29.868.868 0 00-.207.627l.057.981-.495.296-1.211-.724v-.591l.849-.44a.837.837 0 00.418-.498.887.887 0 00-.245-.924.827.827 0 00-.605-.209.812.812 0 00-.314.09l-.937.484-.936-.485a.808.808 0 00-.634-.043.842.842 0 00-.479.432.89.89 0 00-.046.655.854.854 0 00.413.498l.85.44v.59l-1.212.724-.495-.295.057-.981a.89.89 0 00-.207-.627.837.837 0 00-.575-.29.808.808 0 00-.605.217.86.86 0 00-.277.597l-.061 1.08-.874.597a.847.847 0 00-.36.547.89.89 0 00.121.65.847.847 0 00.53.369.805.805 0 00.627-.127l.792-.54.495.295v1.447zm1.666-1.447l1.211-.724 1.211.724v1.446l-1.21.724-1.212-.724v-1.447zm25.55-2.82a.807.807 0 00-.603.216.859.859 0 00-.279.593l-.062 1.082-.874.597a.877.877 0 00-.361.884.88.88 0 00.352.551.817.817 0 00.626.132.816.816 0 00.301-.128l.792-.541.495.295v1.447l-.495.296-.792-.54a.81.81 0 00-.625-.124.833.833 0 00-.527.369.887.887 0 00-.122.646c.044.224.172.42.356.547l.874.597.062 1.082a.875.875 0 00.26.575.82.82 0 00.571.235l.051-.001a.823.823 0 00.574-.289.88.88 0 00.208-.624l-.057-.98.495-.296 1.211.723v.592l-.849.439a.855.855 0 00-.413.499.89.89 0 00.047.655c.098.203.27.358.478.43a.808.808 0 00.634-.042l.937-.485.937.485c.197.1.425.116.633.043a.842.842 0 00.479-.431.889.889 0 00.046-.655.855.855 0 00-.413-.499l-.849-.44v-.59l1.211-.724.495.296-.057.98a.881.881 0 00.209.624.823.823 0 00.624.29.818.818 0 00.57-.235.875.875 0 00.26-.575L83 64.292l.874-.597a.849.849 0 00.359-.547.893.893 0 00-.12-.649.848.848 0 00-.53-.37.808.808 0 00-.627.127l-.792.541-.495-.296v-1.447l.495-.295.792.54a.816.816 0 00.927-.003.85.85 0 00.352-.551.893.893 0 00-.129-.648.846.846 0 00-.232-.236L83 59.264l-.063-1.082a.885.885 0 00-.275-.6.829.829 0 00-.607-.22.81.81 0 00-.577.293.871.871 0 00-.204.63l.057.981-.495.296-1.211-.724v-.592l.848-.439a.839.839 0 00.423-.498.889.889 0 00-.245-.928.828.828 0 00-.609-.207.811.811 0 00-.314.091l-.937.485-.937-.485a.808.808 0 00-.633-.043.842.842 0 00-.479.432.89.89 0 00-.046.655.854.854 0 00.413.498l.849.44v.59l-1.211.724-.495-.295.056-.981a.88.88 0 00-.208-.623.823.823 0 00-.573-.289zm2.054 3.681l1.21-.723 1.212.723v1.447l-1.211.724-1.211-.724v-1.447z" fill="#fff"/><path d="M76.084 32.897c.46 0 .834-.386.834-.862s-.374-.862-.834-.862c-.46 0-.833.386-.833.862s.373.862.833.862zm3.083 0c.46 0 .833-.386.833-.862s-.373-.862-.833-.862c-.46 0-.834.386-.834.862s.373.862.834.862zm3.333 0c.46 0 .833-.386.833-.862s-.373-.862-.833-.862c-.46 0-.833.386-.833.862s.373.862.833.862zM65 47.553a.82.82 0 00.59-.252.878.878 0 00.243-.61v-.862a.878.878 0 00-.244-.61.82.82 0 00-.589-.252.82.82 0 00-.59.252.878.878 0 00-.243.61v.862c0 .229.087.448.244.61a.82.82 0 00.589.252zm-.833 6.897c0 .228.087.448.244.61a.82.82 0 00.589.252.82.82 0 00.59-.252.878.878 0 00.243-.61v-5.173a.878.878 0 00-.244-.61.82.82 0 00-.589-.252.82.82 0 00-.59.252.878.878 0 00-.243.61v5.173zm-7.144-3.19c-.266.28-.552.54-.856.776A.885.885 0 0056 53.243a.812.812 0 001.167.172 9.314 9.314 0 001.046-.948.878.878 0 00.235-.611.877.877 0 00-.25-.605.819.819 0 00-.59-.246.82.82 0 00-.585.255zm1.947-1.193a.808.808 0 00.912-.169.862.862 0 00.186-.276 9.705 9.705 0 00.765-3.793.877.877 0 00-.244-.61.82.82 0 00-.589-.252.82.82 0 00-.59.252.878.878 0 00-.243.61 7.94 7.94 0 01-.627 3.103.89.89 0 00-.011.66.85.85 0 00.442.475zm14.863 1.969a7.64 7.64 0 01-1.995-2.328.837.837 0 00-.506-.397.81.81 0 00-.63.087.86.86 0 00-.387.52.888.888 0 00.08.653 9.336 9.336 0 002.438 2.844.813.813 0 001.167-.172.884.884 0 00-.167-1.207zm-3-6.207a.878.878 0 00-.244-.61.82.82 0 00-.589-.252.82.82 0 00-.59.252.878.878 0 00-.243.61c0 .637.062 1.272.185 1.896a.86.86 0 00.357.547.81.81 0 00.626.126.833.833 0 00.529-.37.887.887 0 00.12-.647 8.083 8.083 0 01-.15-1.552z" fill="#fff"/><defs><linearGradient id="paint0_linear" x1="65" y1="1" x2="65" y2="101" gradientUnits="userSpaceOnUse"><stop stop-color="#406394" stop-opacity=".74"/><stop offset=".609" stop-color="#406394"/></linearGradient></defs></svg>