<svg width="25" height="25" fill="none" xmlns="http://www.w3.org/2000/svg"><g clip-path="url(#clip0)"><path d="M15.139 4.906L12.822 2.59a.812.812 0 00-.574-.237H.406A.406.406 0 000 2.757V7.63c0 .224.182.406.406.406h11.842a.812.812 0 00.574-.238l2.317-2.317a.406.406 0 000-.574z" fill="#96D255"/><path d="M20.01 12.213l-2.317-2.317a.812.812 0 00-.574-.238H.406a.406.406 0 00-.406.406v4.872c0 .224.182.406.406.406h16.713a.812.812 0 00.574-.238l2.317-2.317a.406.406 0 000-.574z" fill="#BEE86E"/><path d="M24.881 19.52l-2.317-2.317a.812.812 0 00-.574-.238H.406a.406.406 0 00-.406.406v4.872c0 .224.182.405.406.405H21.99a.812.812 0 00.574-.237l2.317-2.317a.406.406 0 000-.574z" fill="#E1F573"/><path d="M1.624 7.629V2.757c0-.224.181-.405.406-.405H.406A.406.406 0 000 2.757V7.63c0 .224.182.406.406.406H2.03a.406.406 0 01-.406-.406z" fill="#96D255"/><path d="M1.624 14.936v-4.872c0-.224.181-.406.406-.406H.406a.406.406 0 00-.406.406v4.872c0 .224.182.406.406.406H2.03a.406.406 0 01-.406-.406z" fill="#AFD755"/><path d="M1.624 7.629V2.757c0-.224.181-.405.406-.405H.406A.406.406 0 000 2.757V7.63c0 .224.182.406.406.406H2.03a.406.406 0 01-.406-.406z" fill="#87B950"/><path d="M1.624 22.242v-4.87c0-.225.181-.407.406-.407H.406a.406.406 0 00-.406.406v4.872c0 .224.182.405.406.405H2.03a.406.406 0 01-.406-.405z" fill="#C7E86E"/></g><defs><clipPath id="clip0"><path fill="#fff" d="M0 0h25v25H0z"/></clipPath></defs></svg>