<svg width="25" height="25" fill="none" xmlns="http://www.w3.org/2000/svg"><path d="M12.5 19.287a6.787 6.787 0 100-13.574 6.787 6.787 0 000 13.574z" fill="url(#paint0_linear)"/><path d="M12.5 3.986a.732.732 0 00.732-.732V.732a.732.732 0 10-1.464 0v2.522c0 .405.327.732.732.732z" fill="url(#paint1_linear)"/><path d="M24.268 11.768h-2.522a.732.732 0 100 1.464h2.522a.732.732 0 100-1.464z" fill="url(#paint2_linear)"/><path d="M12.5 21.014a.732.732 0 00-.732.732v2.522a.732.732 0 101.464 0v-2.522a.732.732 0 00-.732-.732z" fill="url(#paint3_linear)"/><path d="M3.986 12.5a.732.732 0 00-.732-.732H.732a.732.732 0 100 1.464h2.522a.732.732 0 00.732-.732z" fill="url(#paint4_linear)"/><path d="M19.038 6.695a.73.73 0 00.518-.215l1.783-1.783a.732.732 0 00-1.036-1.036L18.52 5.444a.732.732 0 00.518 1.25z" fill="url(#paint5_linear)"/><path d="M19.556 18.52a.732.732 0 00-1.036 1.036l1.783 1.783a.73.73 0 001.036 0 .732.732 0 000-1.036l-1.783-1.783z" fill="url(#paint6_linear)"/><path d="M5.444 18.52l-1.783 1.783a.732.732 0 001.036 1.036l1.783-1.783a.732.732 0 00-1.036-1.036z" fill="url(#paint7_linear)"/><path d="M5.444 6.48a.73.73 0 001.036 0 .732.732 0 000-1.036L4.697 3.661A.732.732 0 103.66 4.697L5.444 6.48z" fill="url(#paint8_linear)"/><path d="M15.767 4.638a.73.73 0 00.958-.395l.967-2.329a.732.732 0 00-1.352-.562l-.968 2.329a.733.733 0 00.395.957z" fill="url(#paint9_linear)"/><path d="M23.648 16.34l-2.329-.968a.732.732 0 10-.562 1.353l2.328.967a.732.732 0 10.563-1.352z" fill="url(#paint10_linear)"/><path d="M9.233 20.362a.732.732 0 00-.958.395l-.967 2.328a.733.733 0 001.352.563l.968-2.329a.732.732 0 00-.395-.957z" fill="url(#paint11_linear)"/><path d="M1.352 8.66l2.329.968a.73.73 0 00.957-.395.732.732 0 00-.395-.958l-2.328-.967a.733.733 0 00-.563 1.352z" fill="url(#paint12_linear)"/><path d="M20.37 9.251a.733.733 0 00.956.398l2.33-.963a.732.732 0 00-.558-1.354l-2.331.963a.732.732 0 00-.398.956z" fill="url(#paint13_linear)"/><path d="M16.705 20.767a.732.732 0 00-1.354.559l.963 2.33a.733.733 0 001.354-.558l-.963-2.331z" fill="url(#paint14_linear)"/><path d="M4.63 15.749a.732.732 0 00-.956-.398l-2.33.963a.732.732 0 00.558 1.354l2.331-.963a.732.732 0 00.398-.956z" fill="url(#paint15_linear)"/><path d="M8.295 4.233a.733.733 0 001.354-.559l-.962-2.33a.732.732 0 00-1.354.558l.962 2.331z" fill="url(#paint16_linear)"/><defs><linearGradient id="paint1_linear" x1="12.5" y1="0" x2="12.5" y2="3.986" gradientUnits="userSpaceOnUse"><stop stop-color="#FFB800" stop-opacity=".47"/><stop offset=".635" stop-color="#FFB800"/></linearGradient><linearGradient id="paint8_linear" x1="5.071" y1="3.447" x2="5.071" y2="6.695" gradientUnits="userSpaceOnUse"><stop stop-color="#FFB800" stop-opacity=".47"/><stop offset=".635" stop-color="#FFB800"/></linearGradient><linearGradient id="paint2_linear" x1="23.007" y1="11.768" x2="23.007" y2="13.232" gradientUnits="userSpaceOnUse"><stop stop-color="#FFB800" stop-opacity=".47"/><stop offset=".635" stop-color="#FFB800"/></linearGradient><linearGradient id="paint3_linear" x1="12.5" y1="21.014" x2="12.5" y2="25" gradientUnits="userSpaceOnUse"><stop stop-color="#FFB800" stop-opacity=".47"/><stop offset=".635" stop-color="#FFB800"/></linearGradient><linearGradient id="paint4_linear" x1="1.993" y1="11.768" x2="1.993" y2="13.232" gradientUnits="userSpaceOnUse"><stop stop-color="#FFB800" stop-opacity=".47"/><stop offset=".635" stop-color="#FFB800"/></linearGradient><linearGradient id="paint5_linear" x1="19.929" y1="3.447" x2="19.929" y2="6.695" gradientUnits="userSpaceOnUse"><stop stop-color="#FFB800" stop-opacity=".47"/><stop offset=".635" stop-color="#FFB800"/></linearGradient><linearGradient id="paint6_linear" x1="19.929" y1="18.305" x2="19.929" y2="21.553" gradientUnits="userSpaceOnUse"><stop stop-color="#FFB800" stop-opacity=".47"/><stop offset=".635" stop-color="#FFB800"/></linearGradient><linearGradient id="paint7_linear" x1="5.071" y1="18.305" x2="5.071" y2="21.553" gradientUnits="userSpaceOnUse"><stop stop-color="#FFB800" stop-opacity=".47"/><stop offset=".635" stop-color="#FFB800"/></linearGradient><linearGradient id="paint0_linear" x1="12.5" y1="5.713" x2="12.5" y2="19.287" gradientUnits="userSpaceOnUse"><stop stop-color="#FFB800" stop-opacity=".47"/><stop offset=".635" stop-color="#FFB800"/></linearGradient><linearGradient id="paint9_linear" x1="16.532" y1=".901" x2="16.532" y2="4.695" gradientUnits="userSpaceOnUse"><stop stop-color="#FFB800" stop-opacity=".47"/><stop offset=".635" stop-color="#FFB800"/></linearGradient><linearGradient id="paint10_linear" x1="22.202" y1="15.316" x2="22.202" y2="17.749" gradientUnits="userSpaceOnUse"><stop stop-color="#FFB800" stop-opacity=".47"/><stop offset=".635" stop-color="#FFB800"/></linearGradient><linearGradient id="paint11_linear" x1="8.468" y1="20.305" x2="8.468" y2="24.099" gradientUnits="userSpaceOnUse"><stop stop-color="#FFB800" stop-opacity=".47"/><stop offset=".635" stop-color="#FFB800"/></linearGradient><linearGradient id="paint12_linear" x1="2.798" y1="7.251" x2="2.798" y2="9.684" gradientUnits="userSpaceOnUse"><stop stop-color="#FFB800" stop-opacity=".47"/><stop offset=".635" stop-color="#FFB800"/></linearGradient><linearGradient id="paint13_linear" x1="22.212" y1="7.277" x2="22.212" y2="9.704" gradientUnits="userSpaceOnUse"><stop stop-color="#FFB800" stop-opacity=".47"/><stop offset=".635" stop-color="#FFB800"/></linearGradient><linearGradient id="paint14_linear" x1="16.509" y1="20.314" x2="16.509" y2="24.11" gradientUnits="userSpaceOnUse"><stop stop-color="#FFB800" stop-opacity=".47"/><stop offset=".635" stop-color="#FFB800"/></linearGradient><linearGradient id="paint15_linear" x1="2.788" y1="15.296" x2="2.788" y2="17.723" gradientUnits="userSpaceOnUse"><stop stop-color="#FFB800" stop-opacity=".47"/><stop offset=".635" stop-color="#FFB800"/></linearGradient><linearGradient id="paint16_linear" x1="8.491" y1=".89" x2="8.491" y2="4.686" gradientUnits="userSpaceOnUse"><stop stop-color="#FFB800" stop-opacity=".47"/><stop offset=".635" stop-color="#FFB800"/></linearGradient></defs></svg>